<svg xmlns="http://www.w3.org/2000/svg" viewBox="0 0 120 120" role="img" aria-label="Mali, Siamese cat">
  <circle cx="60" cy="60" r="58" fill="#DCEBE7"/>
  <path d="M27 52 L33 17 L55 40 Z" fill="#5A3E2E" stroke="#2E211A" stroke-width="2" stroke-linejoin="round"/>
  <path d="M93 52 L87 17 L65 40 Z" fill="#5A3E2E" stroke="#2E211A" stroke-width="2" stroke-linejoin="round"/>
  <path d="M33 45 L36 26 L48 39 Z" fill="#C98F86"/><path d="M87 45 L84 26 L72 39 Z" fill="#C98F86"/>
  <ellipse cx="60" cy="68" rx="35" ry="31" fill="#F4E9D6" stroke="#2E211A" stroke-width="2"/>
  <ellipse cx="60" cy="80" rx="18" ry="16" fill="#6E4C38" opacity=".9"/>
  <ellipse cx="45" cy="63" rx="7.5" ry="8" fill="#fff" stroke="#2E211A" stroke-width="1.6"/>
  <ellipse cx="75" cy="63" rx="7.5" ry="8" fill="#fff" stroke="#2E211A" stroke-width="1.6"/>
  <ellipse cx="45.5" cy="64" rx="5.2" ry="6" fill="#3B7FC4"/><ellipse cx="75.5" cy="64" rx="5.2" ry="6" fill="#3B7FC4"/>
  <ellipse cx="45.5" cy="64.5" rx="1.8" ry="4" fill="#1D1D24"/><ellipse cx="75.5" cy="64.5" rx="1.8" ry="4" fill="#1D1D24"/>
  <circle cx="47.2" cy="61.5" r="1.3" fill="#fff"/><circle cx="77.2" cy="61.5" r="1.3" fill="#fff"/>
  <path d="M55.5 77 L64.5 77 L60 82 Z" fill="#E8A5A0" stroke="#2E211A" stroke-width="1.2" stroke-linejoin="round"/>
  <path d="M60 82 Q60 87 55 88 M60 82 Q60 87 65 88" fill="none" stroke="#F4E9D6" stroke-width="1.8" stroke-linecap="round"/>
  <path d="M41 80 L22 77 M41 84 L23 86 M79 80 L98 77 M79 84 L97 86" stroke="#2E211A" stroke-width="1.3" stroke-linecap="round"/>
  <g transform="translate(86 38)">
    <circle r="3" fill="#E3A21A"/>
    <g fill="#fff" stroke="#BFB5A3" stroke-width=".8">
      <ellipse cx="0" cy="-6.5" rx="3.2" ry="4.2"/><ellipse cx="6.2" cy="-2" rx="3.2" ry="4.2" transform="rotate(72 6.2 -2)"/>
      <ellipse cx="3.8" cy="5.3" rx="3.2" ry="4.2" transform="rotate(144 3.8 5.3)"/><ellipse cx="-3.8" cy="5.3" rx="3.2" ry="4.2" transform="rotate(216 -3.8 5.3)"/>
      <ellipse cx="-6.2" cy="-2" rx="3.2" ry="4.2" transform="rotate(288 -6.2 -2)"/>
    </g>
    <circle r="2.6" fill="#E3A21A"/>
  </g>
</svg>
